<svg width="22" height="21" viewBox="0 0 22 21" fill="none" xmlns="http://www.w3.org/2000/svg">
<rect x="0.833374" y="0.38092" width="20.2381" height="20.2381" rx="5.95238" fill="#0ACF83"/>
<mask id="mask0_54_461" style="mask-type:alpha" maskUnits="userSpaceOnUse" x="0" y="0" width="22" height="21">
<rect x="0.833374" y="0.38092" width="20.2381" height="20.2381" rx="5.95238" fill="#0ACF83"/>
</mask>
<g mask="url(#mask0_54_461)">
<path d="M13.9023 10.0181C14.2975 11.4928 13.4206 13.0091 11.9438 13.4048C10.4671 13.8005 8.94956 12.9258 8.55441 11.451C8.15925 9.97633 9.03609 8.46005 10.5129 8.06435C11.9897 7.66864 13.5072 8.54336 13.9023 10.0181Z" fill="white"/>
<path fill-rule="evenodd" clip-rule="evenodd" d="M0.60277 1.89782C0.227648 2.27249 0.227436 2.87974 0.602297 3.25415L5.30895 7.95511C4.67258 9.30382 4.49222 10.8757 4.90818 12.4281C5.84217 15.9138 9.42899 17.9813 12.9196 17.046C16.4102 16.1107 18.4827 12.5268 17.5487 9.04107C16.6147 5.55537 13.0279 3.48785 9.53729 4.42315C9.01175 4.56396 8.51836 4.76482 8.06253 5.01634L3.45025 0.409632C3.07539 0.0352239 2.46741 0.0354355 2.09229 0.410105L0.60277 1.89782ZM12.2041 14.3758C14.2179 13.8363 15.4136 11.7686 14.8747 9.75762C14.3359 7.74663 12.2666 6.55383 10.2528 7.09343C8.23899 7.63302 7.0433 9.70068 7.58214 11.7117C8.12098 13.7226 10.1903 14.9154 12.2041 14.3758Z" fill="white"/>
</g>
</svg>
